<svg width="606" height="115" viewBox="0 0 606 115" fill="none" xmlns="http://www.w3.org/2000/svg">
<mask id="path-1-outside-1" maskUnits="userSpaceOnUse" x="0.206879" y="0.459999" width="606" height="115" fill="black">
<rect fill="white" x="0.206879" y="0.459999" width="606" height="115"/>
<path d="M1.20688 2.42H7.02688V44H1.20688V2.42Z"/>
<path d="M58.9869 44C58.3069 42.2 57.6669 40.44 57.0669 38.72C56.4669 36.96 55.8469 35.18 55.2069 33.38H36.3669L32.5869 44H26.5269C28.1269 39.6 29.6269 35.54 31.0269 31.82C32.4269 28.06 33.7869 24.5 35.1069 21.14C36.4669 17.78 37.8069 14.58 39.1269 11.54C40.4469 8.46 41.8269 5.42 43.2669 2.42H48.6069C50.0469 5.42 51.4269 8.46 52.7469 11.54C54.0669 14.58 55.3869 17.78 56.7069 21.14C58.0669 24.5 59.4469 28.06 60.8469 31.82C62.2469 35.54 63.7469 39.6 65.3469 44H58.9869ZM53.5269 28.58C52.2469 25.1 50.9669 21.74 49.6869 18.5C48.4469 15.22 47.1469 12.08 45.7869 9.08C44.3869 12.08 43.0469 15.22 41.7669 18.5C40.5269 21.74 39.2869 25.1 38.0469 28.58H53.5269Z"/>
<path d="M89.652 38.24C89.252 37.28 88.712 36.06 88.032 34.58C87.392 33.1 86.692 31.5 85.932 29.78C85.172 28.06 84.352 26.3 83.472 24.5C82.632 22.66 81.832 20.94 81.072 19.34C80.312 17.7 79.592 16.24 78.912 14.96C78.272 13.68 77.752 12.7 77.352 12.02C76.912 16.74 76.552 21.86 76.272 27.38C75.992 32.86 75.752 38.4 75.552 44H69.852C70.012 40.4 70.192 36.78 70.392 33.14C70.592 29.46 70.812 25.86 71.052 22.34C71.332 18.78 71.612 15.32 71.892 11.96C72.212 8.6 72.552 5.42 72.912 2.42H78.012C79.092 4.18 80.252 6.26 81.492 8.66C82.732 11.06 83.972 13.58 85.212 16.22C86.452 18.82 87.652 21.44 88.812 24.08C89.972 26.68 91.032 29.06 91.992 31.22C92.952 29.06 94.012 26.68 95.172 24.08C96.332 21.44 97.532 18.82 98.772 16.22C100.012 13.58 101.252 11.06 102.492 8.66C103.732 6.26 104.892 4.18 105.972 2.42H111.072C112.432 15.82 113.452 29.68 114.132 44H108.432C108.232 38.4 107.992 32.86 107.712 27.38C107.432 21.86 107.072 16.74 106.632 12.02C106.232 12.7 105.692 13.68 105.012 14.96C104.372 16.24 103.672 17.7 102.912 19.34C102.152 20.94 101.332 22.66 100.452 24.5C99.612 26.3 98.812 28.06 98.052 29.78C97.292 31.5 96.572 33.1 95.892 34.58C95.252 36.06 94.732 37.28 94.332 38.24H89.652Z"/>
<path d="M164.924 44C164.244 42.2 163.604 40.44 163.004 38.72C162.404 36.96 161.784 35.18 161.144 33.38H142.304L138.524 44H132.464C134.064 39.6 135.564 35.54 136.964 31.82C138.364 28.06 139.724 24.5 141.044 21.14C142.404 17.78 143.744 14.58 145.064 11.54C146.384 8.46 147.764 5.42 149.204 2.42H154.544C155.984 5.42 157.364 8.46 158.684 11.54C160.004 14.58 161.324 17.78 162.644 21.14C164.004 24.5 165.384 28.06 166.784 31.82C168.184 35.54 169.684 39.6 171.284 44H164.924ZM159.464 28.58C158.184 25.1 156.904 21.74 155.624 18.5C154.384 15.22 153.084 12.08 151.724 9.08C150.324 12.08 148.984 15.22 147.704 18.5C146.464 21.74 145.224 25.1 143.984 28.58H159.464Z"/>
<path d="M190.816 44V2.42H215.896V7.4H196.636V19.94H213.736V24.86H196.636V44H190.816Z"/>
<path d="M243.383 26.6C244.023 27.4 244.823 28.46 245.783 29.78C246.783 31.06 247.803 32.5 248.843 34.1C249.883 35.66 250.903 37.3 251.903 39.02C252.943 40.74 253.823 42.4 254.543 44H248.183C247.383 42.48 246.503 40.94 245.543 39.38C244.623 37.82 243.683 36.34 242.723 34.94C241.763 33.5 240.803 32.16 239.843 30.92C238.923 29.68 238.083 28.6 237.323 27.68C236.803 27.72 236.263 27.74 235.703 27.74C235.183 27.74 234.643 27.74 234.083 27.74H228.863V44H223.043V3.02C224.683 2.62 226.503 2.36 228.503 2.24C230.543 2.08 232.403 2 234.083 2C239.923 2 244.363 3.1 247.403 5.3C250.483 7.5 252.023 10.78 252.023 15.14C252.023 17.9 251.283 20.26 249.803 22.22C248.363 24.18 246.223 25.64 243.383 26.6ZM234.563 7.1C232.083 7.1 230.183 7.16 228.863 7.28V22.94H233.003C235.003 22.94 236.803 22.84 238.403 22.64C240.003 22.44 241.343 22.06 242.423 21.5C243.543 20.94 244.403 20.16 245.003 19.16C245.603 18.12 245.903 16.76 245.903 15.08C245.903 13.52 245.603 12.22 245.003 11.18C244.403 10.14 243.583 9.32 242.543 8.72C241.543 8.12 240.343 7.7 238.943 7.46C237.583 7.22 236.123 7.1 234.563 7.1Z"/>
<path d="M260.777 44V2.42H286.157V7.4H266.597V19.76H283.997V24.62H266.597V39.02H287.657V44H260.777Z"/>
<path d="M295.055 44V2.42H320.435V7.4H300.875V19.76H318.275V24.62H300.875V39.02H321.935V44H295.055Z"/>
<path d="M354.352 38.96V44H329.332V2.42H335.152V38.96H354.352Z"/>
<path d="M389.924 44C389.244 42.2 388.604 40.44 388.004 38.72C387.404 36.96 386.784 35.18 386.144 33.38H367.304L363.524 44H357.464C359.064 39.6 360.564 35.54 361.964 31.82C363.364 28.06 364.724 24.5 366.044 21.14C367.404 17.78 368.744 14.58 370.064 11.54C371.384 8.46 372.764 5.42 374.204 2.42H379.544C380.984 5.42 382.364 8.46 383.684 11.54C385.004 14.58 386.324 17.78 387.644 21.14C389.004 24.5 390.384 28.06 391.784 31.82C393.184 35.54 394.684 39.6 396.284 44H389.924ZM384.464 28.58C383.184 25.1 381.904 21.74 380.624 18.5C379.384 15.22 378.084 12.08 376.724 9.08C375.324 12.08 373.984 15.22 372.704 18.5C371.464 21.74 370.224 25.1 368.984 28.58H384.464Z"/>
<path d="M430.43 44C429.55 42.52 428.53 40.86 427.37 39.02C426.25 37.18 425.03 35.28 423.71 33.32C422.39 31.32 421.01 29.3 419.57 27.26C418.17 25.22 416.77 23.26 415.37 21.38C413.97 19.46 412.61 17.66 411.29 15.98C409.97 14.3 408.75 12.82 407.63 11.54V44H401.93V2.42H406.55C408.43 4.42 410.43 6.76 412.55 9.44C414.71 12.08 416.83 14.82 418.91 17.66C421.03 20.46 423.01 23.22 424.85 25.94C426.73 28.66 428.31 31.08 429.59 33.2V2.42H435.29V44H430.43Z"/>
<path d="M463.462 44.9C460.542 44.9 457.882 44.42 455.482 43.46C453.082 42.5 451.022 41.1 449.302 39.26C447.582 37.42 446.242 35.16 445.282 32.48C444.362 29.76 443.902 26.66 443.902 23.18C443.902 19.7 444.422 16.62 445.462 13.94C446.542 11.22 447.982 8.94 449.782 7.1C451.582 5.26 453.682 3.86 456.082 2.9C458.482 1.94 461.042 1.46 463.762 1.46C465.482 1.46 467.022 1.58 468.382 1.82C469.782 2.06 470.982 2.34 471.982 2.66C473.022 2.98 473.862 3.3 474.502 3.62C475.142 3.94 475.582 4.18 475.822 4.34L474.142 9.14C473.782 8.9 473.262 8.64 472.582 8.36C471.902 8.08 471.122 7.8 470.242 7.52C469.402 7.24 468.462 7.02 467.422 6.86C466.422 6.66 465.402 6.56 464.362 6.56C462.162 6.56 460.182 6.94 458.422 7.7C456.662 8.46 455.162 9.56 453.922 11C452.682 12.44 451.722 14.2 451.042 16.28C450.402 18.32 450.082 20.62 450.082 23.18C450.082 25.66 450.362 27.92 450.922 29.96C451.522 32 452.402 33.76 453.562 35.24C454.722 36.68 456.162 37.8 457.882 38.6C459.642 39.4 461.682 39.8 464.002 39.8C466.682 39.8 468.902 39.52 470.662 38.96C472.422 38.4 473.742 37.9 474.622 37.46L476.122 42.26C475.842 42.46 475.342 42.72 474.622 43.04C473.902 43.32 473.002 43.6 471.922 43.88C470.842 44.16 469.582 44.4 468.142 44.6C466.702 44.8 465.142 44.9 463.462 44.9Z"/>
<path d="M482.789 44V2.42H508.169V7.4H488.609V19.76H506.009V24.62H488.609V39.02H509.669V44H482.789Z"/>
<path d="M546.433 44.9C543.713 44.9 541.353 44.48 539.353 43.64C537.353 42.8 535.713 41.66 534.433 40.22C533.153 38.74 532.193 37 531.553 35C530.953 33 530.653 30.84 530.653 28.52V2.42H536.473V27.86C536.473 32.02 537.393 35.04 539.233 36.92C541.073 38.8 543.473 39.74 546.433 39.74C547.913 39.74 549.253 39.52 550.453 39.08C551.693 38.6 552.753 37.88 553.633 36.92C554.513 35.96 555.193 34.74 555.673 33.26C556.153 31.74 556.393 29.94 556.393 27.86V2.42H562.213V28.52C562.213 30.84 561.893 33 561.253 35C560.653 37 559.693 38.74 558.373 40.22C557.093 41.66 555.453 42.8 553.453 43.64C551.493 44.48 549.153 44.9 546.433 44.9Z"/>
<path d="M597.222 44C596.622 42.8 595.902 41.48 595.062 40.04C594.222 38.56 593.302 37.04 592.302 35.48C591.302 33.88 590.262 32.3 589.182 30.74C588.102 29.14 587.062 27.64 586.062 26.24C585.062 27.64 584.022 29.14 582.942 30.74C581.862 32.3 580.822 33.88 579.822 35.48C578.862 37.04 577.942 38.56 577.062 40.04C576.222 41.48 575.502 42.8 574.902 44H568.482C570.282 40.48 572.362 36.9 574.722 33.26C577.122 29.62 579.662 25.88 582.342 22.04L569.022 2.42H575.742L586.002 17.9L596.142 2.42H602.802L589.722 21.8C592.442 25.68 595.002 29.46 597.402 33.14C599.802 36.82 601.922 40.44 603.762 44H597.222Z"/>
<path d="M199.263 92.18C199.263 95.78 198.703 98.92 197.583 101.6C196.463 104.24 194.883 106.44 192.843 108.2C190.803 109.92 188.363 111.22 185.523 112.1C182.683 112.94 179.563 113.36 176.163 113.36C174.483 113.36 172.623 113.28 170.583 113.12C168.583 113 166.763 112.74 165.123 112.34V72.02C166.763 71.62 168.583 71.36 170.583 71.24C172.623 71.08 174.483 71 176.163 71C179.563 71 182.683 71.44 185.523 72.32C188.363 73.16 190.803 74.46 192.843 76.22C194.883 77.94 196.463 80.14 197.583 82.82C198.703 85.46 199.263 88.58 199.263 92.18ZM176.643 108.26C182.163 108.26 186.283 106.86 189.003 104.06C191.723 101.22 193.083 97.26 193.083 92.18C193.083 87.1 191.723 83.16 189.003 80.36C186.283 77.52 182.163 76.1 176.643 76.1C175.003 76.1 173.723 76.12 172.803 76.16C171.923 76.2 171.303 76.24 170.943 76.28V108.08C171.303 108.12 171.923 108.16 172.803 108.2C173.723 108.24 175.003 108.26 176.643 108.26Z"/>
<path d="M207.896 113V71.42H233.276V76.4H213.716V88.76H231.116V93.62H213.716V108.02H234.776V113H207.896Z"/>
<path d="M251.834 108.86C257.914 108.86 260.954 106.78 260.954 102.62C260.954 101.34 260.674 100.26 260.114 99.38C259.594 98.46 258.874 97.68 257.954 97.04C257.034 96.36 255.974 95.78 254.774 95.3C253.614 94.82 252.374 94.34 251.054 93.86C249.534 93.34 248.094 92.76 246.734 92.12C245.374 91.44 244.194 90.66 243.194 89.78C242.194 88.86 241.394 87.78 240.794 86.54C240.234 85.3 239.954 83.8 239.954 82.04C239.954 78.4 241.194 75.56 243.674 73.52C246.154 71.48 249.574 70.46 253.934 70.46C256.454 70.46 258.734 70.74 260.774 71.3C262.854 71.82 264.374 72.4 265.334 73.04L263.474 77.78C262.634 77.26 261.374 76.76 259.694 76.28C258.054 75.76 256.134 75.5 253.934 75.5C252.814 75.5 251.774 75.62 250.814 75.86C249.854 76.1 249.014 76.46 248.294 76.94C247.574 77.42 246.994 78.04 246.554 78.8C246.154 79.52 245.954 80.38 245.954 81.38C245.954 82.5 246.174 83.44 246.614 84.2C247.054 84.96 247.674 85.64 248.474 86.24C249.274 86.8 250.194 87.32 251.234 87.8C252.314 88.28 253.494 88.76 254.774 89.24C256.574 89.96 258.214 90.68 259.694 91.4C261.214 92.12 262.514 92.98 263.594 93.98C264.714 94.98 265.574 96.18 266.174 97.58C266.774 98.94 267.074 100.6 267.074 102.56C267.074 106.2 265.734 109 263.054 110.96C260.414 112.92 256.674 113.9 251.834 113.9C250.194 113.9 248.674 113.78 247.274 113.54C245.914 113.34 244.694 113.1 243.614 112.82C242.534 112.5 241.594 112.18 240.794 111.86C240.034 111.5 239.434 111.2 238.994 110.96L240.734 106.16C241.654 106.68 243.054 107.26 244.934 107.9C246.814 108.54 249.114 108.86 251.834 108.86Z"/>
<path d="M274.107 71.42H279.927V113H274.107V71.42Z"/>
<path d="M315.601 92.54H321.421V111.98C320.941 112.14 320.241 112.32 319.321 112.52C318.441 112.72 317.401 112.92 316.201 113.12C315.041 113.32 313.761 113.48 312.361 113.6C310.961 113.76 309.541 113.84 308.101 113.84C305.181 113.84 302.521 113.36 300.121 112.4C297.721 111.44 295.661 110.04 293.941 108.2C292.221 106.36 290.881 104.1 289.921 101.42C289.001 98.74 288.541 95.66 288.541 92.18C288.541 88.7 289.061 85.62 290.101 82.94C291.181 80.22 292.621 77.94 294.421 76.1C296.221 74.26 298.321 72.86 300.721 71.9C303.161 70.94 305.761 70.46 308.521 70.46C310.401 70.46 312.061 70.58 313.501 70.82C314.981 71.06 316.241 71.34 317.281 71.66C318.321 71.98 319.161 72.3 319.801 72.62C320.481 72.94 320.941 73.18 321.181 73.34L319.321 78.2C318.161 77.44 316.621 76.82 314.701 76.34C312.781 75.82 310.821 75.56 308.821 75.56C306.701 75.56 304.761 75.94 303.001 76.7C301.281 77.46 299.801 78.56 298.561 80C297.361 81.44 296.421 83.2 295.741 85.28C295.061 87.32 294.721 89.62 294.721 92.18C294.721 94.66 295.001 96.92 295.561 98.96C296.161 101 297.041 102.76 298.201 104.24C299.401 105.68 300.861 106.8 302.581 107.6C304.341 108.4 306.401 108.8 308.761 108.8C310.441 108.8 311.861 108.72 313.021 108.56C314.221 108.36 315.081 108.18 315.601 108.02V92.54Z"/>
<path d="M359.033 113C358.153 111.52 357.133 109.86 355.973 108.02C354.853 106.18 353.633 104.28 352.313 102.32C350.993 100.32 349.613 98.3 348.173 96.26C346.773 94.22 345.373 92.26 343.973 90.38C342.573 88.46 341.213 86.66 339.893 84.98C338.573 83.3 337.353 81.82 336.233 80.54V113H330.533V71.42H335.153C337.033 73.42 339.033 75.76 341.153 78.44C343.313 81.08 345.433 83.82 347.513 86.66C349.633 89.46 351.613 92.22 353.453 94.94C355.333 97.66 356.913 100.08 358.193 102.2V71.42H363.893V113H359.033Z"/>
<path d="M374.185 113V71.42H399.565V76.4H380.005V88.76H397.405V93.62H380.005V108.02H401.065V113H374.185Z"/>
<path d="M428.803 95.6C429.443 96.4 430.243 97.46 431.203 98.78C432.203 100.06 433.223 101.5 434.263 103.1C435.303 104.66 436.323 106.3 437.323 108.02C438.363 109.74 439.243 111.4 439.963 113H433.603C432.803 111.48 431.923 109.94 430.963 108.38C430.043 106.82 429.103 105.34 428.143 103.94C427.183 102.5 426.223 101.16 425.263 99.92C424.343 98.68 423.503 97.6 422.743 96.68C422.223 96.72 421.683 96.74 421.123 96.74C420.603 96.74 420.063 96.74 419.503 96.74H414.283V113H408.463V72.02C410.103 71.62 411.923 71.36 413.923 71.24C415.963 71.08 417.823 71 419.503 71C425.343 71 429.783 72.1 432.823 74.3C435.903 76.5 437.443 79.78 437.443 84.14C437.443 86.9 436.703 89.26 435.223 91.22C433.783 93.18 431.643 94.64 428.803 95.6ZM419.983 76.1C417.503 76.1 415.603 76.16 414.283 76.28V91.94H418.423C420.423 91.94 422.223 91.84 423.823 91.64C425.423 91.44 426.763 91.06 427.843 90.5C428.963 89.94 429.823 89.16 430.423 88.16C431.023 87.12 431.323 85.76 431.323 84.08C431.323 82.52 431.023 81.22 430.423 80.18C429.823 79.14 429.003 78.32 427.963 77.72C426.963 77.12 425.763 76.7 424.363 76.46C423.003 76.22 421.543 76.1 419.983 76.1Z"/>
</mask>
<path d="M1.20688 2.42H7.02688V44H1.20688V2.42Z" stroke="white" stroke-width="2" mask="url(#path-1-outside-1)"/>
<path d="M58.9869 44C58.3069 42.2 57.6669 40.44 57.0669 38.72C56.4669 36.96 55.8469 35.18 55.2069 33.38H36.3669L32.5869 44H26.5269C28.1269 39.6 29.6269 35.54 31.0269 31.82C32.4269 28.06 33.7869 24.5 35.1069 21.14C36.4669 17.78 37.8069 14.58 39.1269 11.54C40.4469 8.46 41.8269 5.42 43.2669 2.42H48.6069C50.0469 5.42 51.4269 8.46 52.7469 11.54C54.0669 14.58 55.3869 17.78 56.7069 21.14C58.0669 24.5 59.4469 28.06 60.8469 31.82C62.2469 35.54 63.7469 39.6 65.3469 44H58.9869ZM53.5269 28.58C52.2469 25.1 50.9669 21.74 49.6869 18.5C48.4469 15.22 47.1469 12.08 45.7869 9.08C44.3869 12.08 43.0469 15.22 41.7669 18.5C40.5269 21.74 39.2869 25.1 38.0469 28.58H53.5269Z" stroke="white" stroke-width="2" mask="url(#path-1-outside-1)"/>
<path d="M89.652 38.24C89.252 37.28 88.712 36.06 88.032 34.58C87.392 33.1 86.692 31.5 85.932 29.78C85.172 28.06 84.352 26.3 83.472 24.5C82.632 22.66 81.832 20.94 81.072 19.34C80.312 17.7 79.592 16.24 78.912 14.96C78.272 13.68 77.752 12.7 77.352 12.02C76.912 16.74 76.552 21.86 76.272 27.38C75.992 32.86 75.752 38.4 75.552 44H69.852C70.012 40.4 70.192 36.78 70.392 33.14C70.592 29.46 70.812 25.86 71.052 22.34C71.332 18.78 71.612 15.32 71.892 11.96C72.212 8.6 72.552 5.42 72.912 2.42H78.012C79.092 4.18 80.252 6.26 81.492 8.66C82.732 11.06 83.972 13.58 85.212 16.22C86.452 18.82 87.652 21.44 88.812 24.08C89.972 26.68 91.032 29.06 91.992 31.22C92.952 29.06 94.012 26.68 95.172 24.08C96.332 21.44 97.532 18.82 98.772 16.22C100.012 13.58 101.252 11.06 102.492 8.66C103.732 6.26 104.892 4.18 105.972 2.42H111.072C112.432 15.82 113.452 29.68 114.132 44H108.432C108.232 38.4 107.992 32.86 107.712 27.38C107.432 21.86 107.072 16.74 106.632 12.02C106.232 12.7 105.692 13.68 105.012 14.96C104.372 16.24 103.672 17.7 102.912 19.34C102.152 20.94 101.332 22.66 100.452 24.5C99.612 26.3 98.812 28.06 98.052 29.78C97.292 31.5 96.572 33.1 95.892 34.58C95.252 36.06 94.732 37.28 94.332 38.24H89.652Z" stroke="white" stroke-width="2" mask="url(#path-1-outside-1)"/>
<path d="M164.924 44C164.244 42.2 163.604 40.44 163.004 38.72C162.404 36.96 161.784 35.18 161.144 33.38H142.304L138.524 44H132.464C134.064 39.6 135.564 35.54 136.964 31.82C138.364 28.06 139.724 24.5 141.044 21.14C142.404 17.78 143.744 14.58 145.064 11.54C146.384 8.46 147.764 5.42 149.204 2.42H154.544C155.984 5.42 157.364 8.46 158.684 11.54C160.004 14.58 161.324 17.78 162.644 21.14C164.004 24.5 165.384 28.06 166.784 31.82C168.184 35.54 169.684 39.6 171.284 44H164.924ZM159.464 28.58C158.184 25.1 156.904 21.74 155.624 18.5C154.384 15.22 153.084 12.08 151.724 9.08C150.324 12.08 148.984 15.22 147.704 18.5C146.464 21.74 145.224 25.1 143.984 28.58H159.464Z" stroke="white" stroke-width="2" mask="url(#path-1-outside-1)"/>
<path d="M190.816 44V2.42H215.896V7.4H196.636V19.94H213.736V24.86H196.636V44H190.816Z" stroke="white" stroke-width="2" mask="url(#path-1-outside-1)"/>
<path d="M243.383 26.6C244.023 27.4 244.823 28.46 245.783 29.78C246.783 31.06 247.803 32.5 248.843 34.1C249.883 35.66 250.903 37.3 251.903 39.02C252.943 40.74 253.823 42.4 254.543 44H248.183C247.383 42.48 246.503 40.94 245.543 39.38C244.623 37.82 243.683 36.34 242.723 34.94C241.763 33.5 240.803 32.16 239.843 30.92C238.923 29.68 238.083 28.6 237.323 27.68C236.803 27.72 236.263 27.74 235.703 27.74C235.183 27.74 234.643 27.74 234.083 27.74H228.863V44H223.043V3.02C224.683 2.62 226.503 2.36 228.503 2.24C230.543 2.08 232.403 2 234.083 2C239.923 2 244.363 3.1 247.403 5.3C250.483 7.5 252.023 10.78 252.023 15.14C252.023 17.9 251.283 20.26 249.803 22.22C248.363 24.18 246.223 25.64 243.383 26.6ZM234.563 7.1C232.083 7.1 230.183 7.16 228.863 7.28V22.94H233.003C235.003 22.94 236.803 22.84 238.403 22.64C240.003 22.44 241.343 22.06 242.423 21.5C243.543 20.94 244.403 20.16 245.003 19.16C245.603 18.12 245.903 16.76 245.903 15.08C245.903 13.52 245.603 12.22 245.003 11.18C244.403 10.14 243.583 9.32 242.543 8.72C241.543 8.12 240.343 7.7 238.943 7.46C237.583 7.22 236.123 7.1 234.563 7.1Z" stroke="white" stroke-width="2" mask="url(#path-1-outside-1)"/>
<path d="M260.777 44V2.42H286.157V7.4H266.597V19.76H283.997V24.62H266.597V39.02H287.657V44H260.777Z" stroke="white" stroke-width="2" mask="url(#path-1-outside-1)"/>
<path d="M295.055 44V2.42H320.435V7.4H300.875V19.76H318.275V24.62H300.875V39.02H321.935V44H295.055Z" stroke="white" stroke-width="2" mask="url(#path-1-outside-1)"/>
<path d="M354.352 38.96V44H329.332V2.42H335.152V38.96H354.352Z" stroke="white" stroke-width="2" mask="url(#path-1-outside-1)"/>
<path d="M389.924 44C389.244 42.2 388.604 40.44 388.004 38.72C387.404 36.96 386.784 35.18 386.144 33.38H367.304L363.524 44H357.464C359.064 39.6 360.564 35.54 361.964 31.82C363.364 28.06 364.724 24.5 366.044 21.14C367.404 17.78 368.744 14.58 370.064 11.54C371.384 8.46 372.764 5.42 374.204 2.42H379.544C380.984 5.42 382.364 8.46 383.684 11.54C385.004 14.58 386.324 17.78 387.644 21.14C389.004 24.5 390.384 28.06 391.784 31.82C393.184 35.54 394.684 39.6 396.284 44H389.924ZM384.464 28.58C383.184 25.1 381.904 21.74 380.624 18.5C379.384 15.22 378.084 12.08 376.724 9.08C375.324 12.08 373.984 15.22 372.704 18.5C371.464 21.74 370.224 25.1 368.984 28.58H384.464Z" stroke="white" stroke-width="2" mask="url(#path-1-outside-1)"/>
<path d="M430.43 44C429.55 42.52 428.53 40.86 427.37 39.02C426.25 37.18 425.03 35.28 423.71 33.32C422.39 31.32 421.01 29.3 419.57 27.26C418.17 25.22 416.77 23.26 415.37 21.38C413.97 19.46 412.61 17.66 411.29 15.98C409.97 14.3 408.75 12.82 407.63 11.54V44H401.93V2.42H406.55C408.43 4.42 410.43 6.76 412.55 9.44C414.71 12.08 416.83 14.82 418.91 17.66C421.03 20.46 423.01 23.22 424.85 25.94C426.73 28.66 428.31 31.08 429.59 33.2V2.42H435.29V44H430.43Z" stroke="white" stroke-width="2" mask="url(#path-1-outside-1)"/>
<path d="M463.462 44.9C460.542 44.9 457.882 44.42 455.482 43.46C453.082 42.5 451.022 41.1 449.302 39.26C447.582 37.42 446.242 35.16 445.282 32.48C444.362 29.76 443.902 26.66 443.902 23.18C443.902 19.7 444.422 16.62 445.462 13.94C446.542 11.22 447.982 8.94 449.782 7.1C451.582 5.26 453.682 3.86 456.082 2.9C458.482 1.94 461.042 1.46 463.762 1.46C465.482 1.46 467.022 1.58 468.382 1.82C469.782 2.06 470.982 2.34 471.982 2.66C473.022 2.98 473.862 3.3 474.502 3.62C475.142 3.94 475.582 4.18 475.822 4.34L474.142 9.14C473.782 8.9 473.262 8.64 472.582 8.36C471.902 8.08 471.122 7.8 470.242 7.52C469.402 7.24 468.462 7.02 467.422 6.86C466.422 6.66 465.402 6.56 464.362 6.56C462.162 6.56 460.182 6.94 458.422 7.7C456.662 8.46 455.162 9.56 453.922 11C452.682 12.44 451.722 14.2 451.042 16.28C450.402 18.32 450.082 20.62 450.082 23.18C450.082 25.66 450.362 27.92 450.922 29.96C451.522 32 452.402 33.76 453.562 35.24C454.722 36.68 456.162 37.8 457.882 38.6C459.642 39.4 461.682 39.8 464.002 39.8C466.682 39.8 468.902 39.52 470.662 38.96C472.422 38.4 473.742 37.9 474.622 37.46L476.122 42.26C475.842 42.46 475.342 42.72 474.622 43.04C473.902 43.32 473.002 43.6 471.922 43.88C470.842 44.16 469.582 44.4 468.142 44.6C466.702 44.8 465.142 44.9 463.462 44.9Z" stroke="white" stroke-width="2" mask="url(#path-1-outside-1)"/>
<path d="M482.789 44V2.42H508.169V7.4H488.609V19.76H506.009V24.62H488.609V39.02H509.669V44H482.789Z" stroke="white" stroke-width="2" mask="url(#path-1-outside-1)"/>
<path d="M546.433 44.9C543.713 44.9 541.353 44.48 539.353 43.64C537.353 42.8 535.713 41.66 534.433 40.22C533.153 38.74 532.193 37 531.553 35C530.953 33 530.653 30.84 530.653 28.52V2.42H536.473V27.86C536.473 32.02 537.393 35.04 539.233 36.92C541.073 38.8 543.473 39.74 546.433 39.74C547.913 39.74 549.253 39.52 550.453 39.08C551.693 38.6 552.753 37.88 553.633 36.92C554.513 35.96 555.193 34.74 555.673 33.26C556.153 31.74 556.393 29.94 556.393 27.86V2.42H562.213V28.52C562.213 30.84 561.893 33 561.253 35C560.653 37 559.693 38.74 558.373 40.22C557.093 41.66 555.453 42.8 553.453 43.64C551.493 44.48 549.153 44.9 546.433 44.9Z" stroke="white" stroke-width="2" mask="url(#path-1-outside-1)"/>
<path d="M597.222 44C596.622 42.8 595.902 41.48 595.062 40.04C594.222 38.56 593.302 37.04 592.302 35.48C591.302 33.88 590.262 32.3 589.182 30.74C588.102 29.14 587.062 27.64 586.062 26.24C585.062 27.64 584.022 29.14 582.942 30.74C581.862 32.3 580.822 33.88 579.822 35.48C578.862 37.04 577.942 38.56 577.062 40.04C576.222 41.48 575.502 42.8 574.902 44H568.482C570.282 40.48 572.362 36.9 574.722 33.26C577.122 29.62 579.662 25.88 582.342 22.04L569.022 2.42H575.742L586.002 17.9L596.142 2.42H602.802L589.722 21.8C592.442 25.68 595.002 29.46 597.402 33.14C599.802 36.82 601.922 40.44 603.762 44H597.222Z" stroke="white" stroke-width="2" mask="url(#path-1-outside-1)"/>
<path d="M199.263 92.18C199.263 95.78 198.703 98.92 197.583 101.6C196.463 104.24 194.883 106.44 192.843 108.2C190.803 109.92 188.363 111.22 185.523 112.1C182.683 112.94 179.563 113.36 176.163 113.36C174.483 113.36 172.623 113.28 170.583 113.12C168.583 113 166.763 112.74 165.123 112.34V72.02C166.763 71.62 168.583 71.36 170.583 71.24C172.623 71.08 174.483 71 176.163 71C179.563 71 182.683 71.44 185.523 72.32C188.363 73.16 190.803 74.46 192.843 76.22C194.883 77.94 196.463 80.14 197.583 82.82C198.703 85.46 199.263 88.58 199.263 92.18ZM176.643 108.26C182.163 108.26 186.283 106.86 189.003 104.06C191.723 101.22 193.083 97.26 193.083 92.18C193.083 87.1 191.723 83.16 189.003 80.36C186.283 77.52 182.163 76.1 176.643 76.1C175.003 76.1 173.723 76.12 172.803 76.16C171.923 76.2 171.303 76.24 170.943 76.28V108.08C171.303 108.12 171.923 108.16 172.803 108.2C173.723 108.24 175.003 108.26 176.643 108.26Z" stroke="white" stroke-width="2" mask="url(#path-1-outside-1)"/>
<path d="M207.896 113V71.42H233.276V76.4H213.716V88.76H231.116V93.62H213.716V108.02H234.776V113H207.896Z" stroke="white" stroke-width="2" mask="url(#path-1-outside-1)"/>
<path d="M251.834 108.86C257.914 108.86 260.954 106.78 260.954 102.62C260.954 101.34 260.674 100.26 260.114 99.38C259.594 98.46 258.874 97.68 257.954 97.04C257.034 96.36 255.974 95.78 254.774 95.3C253.614 94.82 252.374 94.34 251.054 93.86C249.534 93.34 248.094 92.76 246.734 92.12C245.374 91.44 244.194 90.66 243.194 89.78C242.194 88.86 241.394 87.78 240.794 86.54C240.234 85.3 239.954 83.8 239.954 82.04C239.954 78.4 241.194 75.56 243.674 73.52C246.154 71.48 249.574 70.46 253.934 70.46C256.454 70.46 258.734 70.74 260.774 71.3C262.854 71.82 264.374 72.4 265.334 73.04L263.474 77.78C262.634 77.26 261.374 76.76 259.694 76.28C258.054 75.76 256.134 75.5 253.934 75.5C252.814 75.5 251.774 75.62 250.814 75.86C249.854 76.1 249.014 76.46 248.294 76.94C247.574 77.42 246.994 78.04 246.554 78.8C246.154 79.52 245.954 80.38 245.954 81.38C245.954 82.5 246.174 83.44 246.614 84.2C247.054 84.96 247.674 85.64 248.474 86.24C249.274 86.8 250.194 87.32 251.234 87.8C252.314 88.28 253.494 88.76 254.774 89.24C256.574 89.96 258.214 90.68 259.694 91.4C261.214 92.12 262.514 92.98 263.594 93.98C264.714 94.98 265.574 96.18 266.174 97.58C266.774 98.94 267.074 100.6 267.074 102.56C267.074 106.2 265.734 109 263.054 110.96C260.414 112.92 256.674 113.9 251.834 113.9C250.194 113.9 248.674 113.78 247.274 113.54C245.914 113.34 244.694 113.1 243.614 112.82C242.534 112.5 241.594 112.18 240.794 111.86C240.034 111.5 239.434 111.2 238.994 110.96L240.734 106.16C241.654 106.68 243.054 107.26 244.934 107.9C246.814 108.54 249.114 108.86 251.834 108.86Z" stroke="white" stroke-width="2" mask="url(#path-1-outside-1)"/>
<path d="M274.107 71.42H279.927V113H274.107V71.42Z" stroke="white" stroke-width="2" mask="url(#path-1-outside-1)"/>
<path d="M315.601 92.54H321.421V111.98C320.941 112.14 320.241 112.32 319.321 112.52C318.441 112.72 317.401 112.92 316.201 113.12C315.041 113.32 313.761 113.48 312.361 113.6C310.961 113.76 309.541 113.84 308.101 113.84C305.181 113.84 302.521 113.36 300.121 112.4C297.721 111.44 295.661 110.04 293.941 108.2C292.221 106.36 290.881 104.1 289.921 101.42C289.001 98.74 288.541 95.66 288.541 92.18C288.541 88.7 289.061 85.62 290.101 82.94C291.181 80.22 292.621 77.94 294.421 76.1C296.221 74.26 298.321 72.86 300.721 71.9C303.161 70.94 305.761 70.46 308.521 70.46C310.401 70.46 312.061 70.58 313.501 70.82C314.981 71.06 316.241 71.34 317.281 71.66C318.321 71.98 319.161 72.3 319.801 72.62C320.481 72.94 320.941 73.18 321.181 73.34L319.321 78.2C318.161 77.44 316.621 76.82 314.701 76.34C312.781 75.82 310.821 75.56 308.821 75.56C306.701 75.56 304.761 75.94 303.001 76.7C301.281 77.46 299.801 78.56 298.561 80C297.361 81.44 296.421 83.2 295.741 85.28C295.061 87.32 294.721 89.62 294.721 92.18C294.721 94.66 295.001 96.92 295.561 98.96C296.161 101 297.041 102.76 298.201 104.24C299.401 105.68 300.861 106.8 302.581 107.6C304.341 108.4 306.401 108.8 308.761 108.8C310.441 108.8 311.861 108.72 313.021 108.56C314.221 108.36 315.081 108.18 315.601 108.02V92.54Z" stroke="white" stroke-width="2" mask="url(#path-1-outside-1)"/>
<path d="M359.033 113C358.153 111.52 357.133 109.86 355.973 108.02C354.853 106.18 353.633 104.28 352.313 102.32C350.993 100.32 349.613 98.3 348.173 96.26C346.773 94.22 345.373 92.26 343.973 90.38C342.573 88.46 341.213 86.66 339.893 84.98C338.573 83.3 337.353 81.82 336.233 80.54V113H330.533V71.42H335.153C337.033 73.42 339.033 75.76 341.153 78.44C343.313 81.08 345.433 83.82 347.513 86.66C349.633 89.46 351.613 92.22 353.453 94.94C355.333 97.66 356.913 100.08 358.193 102.2V71.42H363.893V113H359.033Z" stroke="white" stroke-width="2" mask="url(#path-1-outside-1)"/>
<path d="M374.185 113V71.42H399.565V76.4H380.005V88.76H397.405V93.62H380.005V108.02H401.065V113H374.185Z" stroke="white" stroke-width="2" mask="url(#path-1-outside-1)"/>
<path d="M428.803 95.6C429.443 96.4 430.243 97.46 431.203 98.78C432.203 100.06 433.223 101.5 434.263 103.1C435.303 104.66 436.323 106.3 437.323 108.02C438.363 109.74 439.243 111.4 439.963 113H433.603C432.803 111.48 431.923 109.94 430.963 108.38C430.043 106.82 429.103 105.34 428.143 103.94C427.183 102.5 426.223 101.16 425.263 99.92C424.343 98.68 423.503 97.6 422.743 96.68C422.223 96.72 421.683 96.74 421.123 96.74C420.603 96.74 420.063 96.74 419.503 96.74H414.283V113H408.463V72.02C410.103 71.62 411.923 71.36 413.923 71.24C415.963 71.08 417.823 71 419.503 71C425.343 71 429.783 72.1 432.823 74.3C435.903 76.5 437.443 79.78 437.443 84.14C437.443 86.9 436.703 89.26 435.223 91.22C433.783 93.18 431.643 94.64 428.803 95.6ZM419.983 76.1C417.503 76.1 415.603 76.16 414.283 76.28V91.94H418.423C420.423 91.94 422.223 91.84 423.823 91.64C425.423 91.44 426.763 91.06 427.843 90.5C428.963 89.94 429.823 89.16 430.423 88.16C431.023 87.12 431.323 85.76 431.323 84.08C431.323 82.52 431.023 81.22 430.423 80.18C429.823 79.14 429.003 78.32 427.963 77.72C426.963 77.12 425.763 76.7 424.363 76.46C423.003 76.22 421.543 76.1 419.983 76.1Z" stroke="white" stroke-width="2" mask="url(#path-1-outside-1)"/>
</svg>
